# xmcd CD database file
# Copyright (C) 1993-1996 Ti Kan
#
# Track frame offsets:
#	150
#	17168
#	33490
#	45013
#	68928
#	91355
#	108760
#	134245
#	143838
#	167328
#	192018
#	215468
#	243195
#	263825
#	304325
#	319473
#
# Disc length: 4398 seconds
#
# Revision: 1
# Processed by: cddbd v1.4b41PL1 Copyright (c) Steve Scherf et al.
# Submitted via: xmcd 2.0
#
DISCID=dd112c10
DTITLE=Blue Rock'it Record - 10 Year Sampler
DYEAR=1900
DGENRE=
TTITLE0=Chris Cain - Wake Up and Smell the Coffee
TTITLE1=Ford Blues - Parchman Farm
TTITLE2=Rick Estrin - Don't Boss Me
TTITLE3=Charlie Musslewhite - Seemed Like the Whole World was Crying
TTITLE4=Garth Webber - Hard Rain
TTITLE5=Brownie McGhee - Big Change
TTITLE6=Michael Osborn - Livewire
TTITLE7=Andy Just - Don't Cry
TTITLE8=Mark Ford and Robben Ford - Up from the Streets
TTITLE9=Hurricane Sam - T-Bone Shuffle
TTITLE10=Jimmy Witherspoon and Robben Ford - Going Down Slow
TTITLE11=Charles Ford - That Will Never Do
TTITLE12=Michael Osborn - Spellbound
TTITLE13=Ford Blues - Self Preservation
TTITLE14=Nitecry - Blues Party
TTITLE15=Ralph Shine Blues - Shufflin' with the Blind
EXTD=
EXTT0=
EXTT1=
EXTT2=
EXTT3=
EXTT4=
EXTT5=
EXTT6=
EXTT7=
EXTT8=
EXTT9=
EXTT10=
EXTT11=
EXTT12=
EXTT13=
EXTT14=
EXTT15=
PLAYORDER=
